<?xml version="1.0" encoding="UTF-8"?>
<svg version="1.1" xmlns="http://www.w3.org/2000/svg" width="771" height="276">
<path d="M0 0 C0.91981155 -0.0033284 1.83962311 -0.0066568 2.78730774 -0.01008606 C4.74695332 -0.01516551 6.70660761 -0.01749407 8.66625977 -0.01733398 C11.61815497 -0.01948918 14.56965699 -0.03754538 17.52148438 -0.05664062 C31.60206391 -0.09990673 45.01323475 0.00930613 57.98828125 6.16796875 C57.98828125 6.82796875 57.98828125 7.48796875 57.98828125 8.16796875 C58.85453125 8.32265625 58.85453125 8.32265625 59.73828125 8.48046875 C62.34489283 9.2769334 63.96181235 10.35862152 65.98828125 12.16796875 C65.98828125 12.82796875 65.98828125 13.48796875 65.98828125 14.16796875 C66.64828125 14.16796875 67.30828125 14.16796875 67.98828125 14.16796875 C70.50647428 16.66755444 72.71477568 19.44587913 74.98828125 22.16796875 C75.73078125 23.01359375 76.47328125 23.85921875 77.23828125 24.73046875 C81.2582074 30.3296516 82.70715156 36.52116648 83.98828125 43.16796875 C84.97828125 43.16796875 85.96828125 43.16796875 86.98828125 43.16796875 C87.08109375 42.58015625 87.17390625 41.99234375 87.26953125 41.38671875 C88.85950094 36.47855143 94.03111754 33.22061396 98.4140625 30.86328125 C108.5557805 26.31527678 119.00104432 25.4607217 129.67578125 28.85546875 C138.64925455 32.73289549 146.00904678 40.91761203 150.61328125 49.48046875 C153.61443226 57.52901011 155.06619177 64.59658784 152.98828125 73.16796875 C148.53328125 73.66296875 148.53328125 73.66296875 143.98828125 74.16796875 C144.49809086 78.20175241 144.49809086 78.20175241 147.05078125 79.41796875 C148.00984375 79.78921875 148.00984375 79.78921875 148.98828125 80.16796875 C148.66483609 85.5048139 145.70145266 88.63161503 141.98828125 92.16796875 C133.92418207 98.01839365 124.55617441 98.80293597 114.8359375 97.69921875 C106.72914958 96.18684131 99.90725669 91.84906574 93.98828125 86.16796875 C93.98828125 85.50796875 93.98828125 84.84796875 93.98828125 84.16796875 C93.43140625 83.98234375 92.87453125 83.79671875 92.30078125 83.60546875 C88.4313192 81.20012748 85.63619184 77.59059097 84.44921875 73.15234375 C84.21419065 71.50043194 84.09024629 69.83339781 83.98828125 68.16796875 C82.99828125 68.16796875 82.00828125 68.16796875 80.98828125 68.16796875 C80.58609375 69.74578125 80.58609375 69.74578125 80.17578125 71.35546875 C79.11575906 74.75869787 78.07439821 77.29955793 75.98828125 80.16796875 C75.32828125 80.16796875 74.66828125 80.16796875 73.98828125 80.16796875 C73.73304688 80.76609375 73.4778125 81.36421875 73.21484375 81.98046875 C69.38763797 88.80605868 60.19354716 92.64040877 53.12109375 95.20947266 C47.74212366 96.71680771 42.2523168 96.41420916 36.7109375 96.36328125 C35.54445175 96.36045135 34.377966 96.35762146 33.1761322 96.35470581 C29.46757549 96.34355263 25.7592644 96.31845661 22.05078125 96.29296875 C19.52930037 96.28293268 17.0078157 96.27380793 14.48632812 96.265625 C8.32022935 96.24362919 2.15427286 96.21019993 -4.01171875 96.16796875 C-4.01171875 94.18796875 -4.01171875 92.20796875 -4.01171875 90.16796875 C-5.99171875 90.16796875 -7.97171875 90.16796875 -10.01171875 90.16796875 C-10.03484103 78.58108473 -10.05263325 66.99420616 -10.06353092 55.40730381 C-10.06876 50.02763113 -10.0758581 44.64797417 -10.0871582 39.26831055 C-10.0979862 34.08122032 -10.1039954 28.89414526 -10.10659599 23.7070446 C-10.1084504 21.72340595 -10.11207131 19.73976817 -10.11744881 17.75613594 C-10.12465807 14.98787739 -10.12570974 12.21968237 -10.12524414 9.45141602 C-10.12883942 8.62279556 -10.13243469 7.79417511 -10.13613892 6.94044495 C-10.12093935 -1.35484495 -7.43528569 0.00928125 0 0 Z M21.98828125 28.16796875 C21.98828125 41.36796875 21.98828125 54.56796875 21.98828125 68.16796875 C36.62514434 69.30626551 36.62514434 69.30626551 46.05078125 63.54296875 C51.3616352 57.03288971 52.65722014 50.58625335 52.375 42.265625 C51.70293962 36.88235347 50.14324262 33.02790565 46.01953125 29.46875 C41.44447294 27.505484 37.09107323 27.85271563 32.17578125 27.98046875 C28.81390625 28.04234375 25.45203125 28.10421875 21.98828125 28.16796875 Z " fill="#FB7740" transform="translate(305.01171875,115.83203125)"/>
<path d="M0 0 C0.8956366 -0.00630432 1.79127319 -0.01260864 2.71405029 -0.019104 C4.17478973 -0.01303131 4.17478973 -0.01303131 5.66503906 -0.00683594 C7.17581024 -0.00970612 7.17581024 -0.00970612 8.71710205 -0.01263428 C10.85909269 -0.01399837 13.00109154 -0.01028641 15.14306641 -0.00195312 C18.37584833 0.00860995 21.60805733 -0.00177088 24.84082031 -0.01464844 C53.75706932 -0.03802726 53.75706932 -0.03802726 63.49316406 5.19628906 C64.46898437 5.7003125 65.44480469 6.20433594 66.45019531 6.72363281 C68.68066406 8.25878906 68.68066406 8.25878906 69.68066406 11.25878906 C70.67066406 11.58878906 71.66066406 11.91878906 72.68066406 12.25878906 C80.15995419 19.99442583 83.73990756 26.50194607 84.11816406 37.19628906 C83.87797077 46.57383542 80.92009185 52.62008462 74.62988281 59.46972656 C72.04105216 61.84584769 69.26532304 63.57906901 66.18457031 65.25097656 C65.68828125 65.58355469 65.19199219 65.91613281 64.68066406 66.25878906 C64.68066406 66.91878906 64.68066406 67.57878906 64.68066406 68.25878906 C65.34066406 68.25878906 66.00066406 68.25878906 66.68066406 68.25878906 C68.26492185 70.12029197 69.72940503 71.98450478 71.18066406 73.94628906 C72.07370333 75.13132802 72.96693857 76.31621932 73.86035156 77.50097656 C74.32151367 78.11682617 74.78267578 78.73267578 75.2578125 79.3671875 C77.58079563 82.45546363 79.94469428 85.51202232 82.30566406 88.57128906 C83.15221404 89.67139883 83.99858642 90.7716453 84.84472656 91.87207031 C85.45058594 92.6596875 86.05644531 93.44730469 86.68066406 94.25878906 C86.35066406 94.91878906 86.02066406 95.57878906 85.68066406 96.25878906 C81.62410125 96.38265067 77.56827428 96.47324639 73.51025391 96.53344727 C72.13082705 96.55854836 70.75153264 96.5926378 69.37255859 96.63598633 C67.38730534 96.69681781 65.40107048 96.72236843 63.41503906 96.74707031 C61.62404785 96.78634644 61.62404785 96.78634644 59.796875 96.82641602 C56.68066406 96.25878906 56.68066406 96.25878906 54.41308594 93.88232422 C53.84138672 93.01655762 53.2696875 92.15079102 52.68066406 91.25878906 C51.01797352 89.58815573 49.35116949 87.92160811 47.68066406 86.25878906 C46.07049863 84.42787515 44.486685 82.57343512 42.93066406 80.69628906 C41.76277344 79.30216797 41.76277344 79.30216797 40.57128906 77.87988281 C38.8678851 75.5183455 38.08100763 74.09455597 37.68066406 71.25878906 C37.02066406 71.25878906 36.36066406 71.25878906 35.68066406 71.25878906 C35.35066406 69.93878906 35.02066406 68.61878906 34.68066406 67.25878906 C32.04066406 67.25878906 29.40066406 67.25878906 26.68066406 67.25878906 C26.68590088 68.10175537 26.6911377 68.94472168 26.6965332 69.81323242 C26.71354232 72.93106842 26.72609812 76.04888083 26.7355957 79.16674805 C26.74063463 80.51799292 26.74746583 81.86923232 26.75610352 83.22045898 C26.76818826 85.1589934 26.77336234 87.09756706 26.77832031 89.03613281 C26.78355713 90.20394287 26.78879395 91.37175293 26.79418945 92.57495117 C26.68066406 95.25878906 26.68066406 95.25878906 25.68066406 96.25878906 C23.82696795 96.34616551 21.96998865 96.36577059 20.11425781 96.35644531 C18.98955078 96.35322266 17.86484375 96.35 16.70605469 96.34667969 C15.52205078 96.33830078 14.33804688 96.32992187 13.11816406 96.32128906 C11.93029297 96.31677734 10.74242187 96.31226563 9.51855469 96.30761719 C6.5725418 96.29578581 3.62662726 96.27930193 0.68066406 96.25878906 C0.35066406 94.60878906 0.02066406 92.95878906 -0.31933594 91.25878906 C-2.29933594 90.59878906 -4.27933594 89.93878906 -6.31933594 89.25878906 C-6.64933594 75.06878906 -6.97933594 60.87878906 -7.31933594 46.25878906 C-13.37293708 57.54408677 -13.37293708 57.54408677 -19.13183594 68.94628906 C-23.86534289 78.56030629 -29.09866422 87.90316053 -34.31933594 97.25878906 C-37.23755057 97.39389159 -40.14951246 97.49291957 -43.06933594 97.57128906 C-43.89433594 97.61318359 -44.71933594 97.65507812 -45.56933594 97.69824219 C-47.9171631 97.74557741 -50.01590074 97.72222029 -52.31933594 97.25878906 C-54.74902344 94.87597656 -54.74902344 94.87597656 -56.31933594 92.25878906 C-57.49496094 91.17597656 -57.49496094 91.17597656 -58.69433594 90.07128906 C-63.17766099 85.2677265 -67.31933594 79.9626518 -67.31933594 73.25878906 C-67.97933594 73.25878906 -68.63933594 73.25878906 -69.31933594 73.25878906 C-69.79242188 72.28941406 -70.26550781 71.32003906 -70.75292969 70.32128906 C-74.33618623 63.0383293 -78.03859638 55.8677187 -82.06933594 48.82128906 C-90.6072608 33.81249683 -90.6072608 33.81249683 -89.90527344 30.02441406 C-89.71191406 29.44175781 -89.51855469 28.85910156 -89.31933594 28.25878906 C-85.38208268 28.14284322 -81.44526671 28.07162443 -77.50683594 28.00878906 C-76.38728516 27.97527344 -75.26773437 27.94175781 -74.11425781 27.90722656 C-73.04111328 27.89433594 -71.96796875 27.88144531 -70.86230469 27.86816406 C-69.37766724 27.83674316 -69.37766724 27.83674316 -67.86303711 27.8046875 C-65.31933594 28.25878906 -65.31933594 28.25878906 -63.47290039 30.15820312 C-62.31933594 32.25878906 -62.31933594 32.25878906 -62.31933594 34.25878906 C-61.70203613 34.35248779 -61.08473633 34.44618652 -60.44873047 34.54272461 C-58.31933594 35.25878906 -58.31933594 35.25878906 -57.16259766 36.77758789 C-56.86111816 37.41720459 -56.55963867 38.05682129 -56.24902344 38.71582031 C-55.91 39.41642578 -55.57097656 40.11703125 -55.22167969 40.83886719 C-54.88265625 41.57556641 -54.54363281 42.31226563 -54.19433594 43.07128906 C-53.84757812 43.79638672 -53.50082031 44.52148438 -53.14355469 45.26855469 C-52.49498975 46.62656518 -51.85223049 47.98737511 -51.21728516 49.35180664 C-50.28240738 51.33721456 -49.30756255 53.29946799 -48.31933594 55.25878906 C-48.04259033 54.72511719 -47.76584473 54.19144531 -47.48071289 53.64160156 C-46.20115285 51.17888122 -44.91652726 48.71883627 -43.63183594 46.25878906 C-43.19677734 45.41960937 -42.76171875 44.58042969 -42.31347656 43.71582031 C-41.4336367 42.03434857 -40.53678004 40.36167334 -39.62329102 38.69824219 C-38.29725999 36.29905089 -38.29725999 36.29905089 -37.28686523 33.86621094 C-36.16035942 31.52975443 -35.27205391 29.97445868 -33.31933594 28.25878906 C-29.33941392 27.28869022 -25.57226919 27.50050864 -21.50683594 27.75878906 C-20.43240234 27.79488281 -19.35796875 27.83097656 -18.25097656 27.86816406 C-15.60344801 27.96229841 -12.96322588 28.0936055 -10.31933594 28.25878906 C-9.25683594 30.13378906 -9.25683594 30.13378906 -8.31933594 32.25878906 C-8.81433594 33.24878906 -8.81433594 33.24878906 -9.31933594 34.25878906 C-8.32933594 34.25878906 -7.33933594 34.25878906 -6.31933594 34.25878906 C-6.32980957 33.2998877 -6.3402832 32.34098633 -6.35107422 31.35302734 C-6.38722922 27.80098187 -6.41021987 24.24895272 -6.42919922 20.69677734 C-6.43926711 19.15833808 -6.4529224 17.61991799 -6.47021484 16.08154297 C-6.4944291 13.87234773 -6.50581085 11.66340511 -6.51464844 9.45410156 C-6.52497101 8.7644632 -6.53529358 8.07482483 -6.54592896 7.36428833 C-6.54633072 5.66078 -6.44124619 3.95792964 -6.31933594 2.25878906 C-3.89629222 -0.16425466 -3.31408527 0.00668965 0 0 Z M26.68066406 28.25878906 C26.68066406 31.88878906 26.68066406 35.51878906 26.68066406 39.25878906 C29.9107314 39.36695876 33.1371616 39.4461814 36.36816406 39.50878906 C37.28017578 39.54230469 38.1921875 39.57582031 39.13183594 39.61035156 C43.46222185 39.67333899 45.99229438 39.65940471 49.80175781 37.44238281 C51.97346007 35.33014493 51.97346007 35.33014493 52.05566406 32.07128906 C51.98390238 29.35954401 51.98390238 29.35954401 50.68066406 28.25878906 C48.8999516 28.17152683 47.11583266 28.15179865 45.33300781 28.16113281 C44.25341797 28.16435547 43.17382812 28.16757813 42.06152344 28.17089844 C40.35706055 28.1834668 40.35706055 28.1834668 38.61816406 28.19628906 C37.47798828 28.20080078 36.3378125 28.2053125 35.16308594 28.20996094 C32.33558988 28.22179146 29.50812061 28.23972756 26.68066406 28.25878906 Z " fill="#FB4564" transform="translate(543.3193359375,115.7412109375)"/>
<path d="M0 0 C0.99 0 1.98 0 3 0 C3.62870989 5.85377408 4.25334931 11.70797205 4.875 17.5625 C4.96681549 18.426474 5.05863098 19.290448 5.15322876 20.18060303 C6.36120466 31.57691767 7.51209338 42.97049511 8.40380859 54.39672852 C8.47035645 55.22744873 8.5369043 56.05816895 8.60546875 56.9140625 C8.68510864 57.9652124 8.68510864 57.9652124 8.76635742 59.03759766 C9.01047506 61.08798172 9.45766406 63.00948503 10 65 C10.28665527 64.07888428 10.28665527 64.07888428 10.57910156 63.13916016 C11.46529928 60.29980826 12.357617 57.46241371 13.25 54.625 C13.55035156 53.65949219 13.85070312 52.69398437 14.16015625 51.69921875 C15.933563 46.07714202 17.89338784 40.59737558 20.12988281 35.14306641 C21.10187882 32.74907623 21.95683849 30.33380069 22.75 27.875 C23.11351562 26.75738281 23.11351562 26.75738281 23.484375 25.6171875 C23.65453125 25.08351563 23.8246875 24.54984375 24 24 C24.66 24 25.32 24 26 24 C25.25932394 41.89317428 25.25932394 41.89317428 23.4765625 49.4765625 C22.44998349 54.91238248 22.3020169 60.48421775 22 66 C25.56341774 61.28371181 28.45843575 56.48133946 31.1796875 51.234375 C33.34169626 47.39286588 35.71596093 43.71456882 38.09619141 40.00537109 C39.98930853 37.01687766 41.82386864 34.00028165 43.640625 30.96484375 C44.23617187 29.97162109 44.83171875 28.97839844 45.4453125 27.95507812 C46.66804256 25.91057818 47.88667133 23.86362083 49.1015625 21.81445312 C49.69195312 20.83283203 50.28234375 19.85121094 50.890625 18.83984375 C51.41688477 17.95675537 51.94314453 17.07366699 52.48535156 16.16381836 C54 14 54 14 57 12 C56.30789743 18.12405911 54.16094426 23.72186249 52.125 29.5 C51.73513916 30.61681152 51.34527832 31.73362305 50.94360352 32.88427734 C46.11407273 46.64422359 41.06365767 60.32484454 36 74 C36.928125 73.01 36.928125 73.01 37.875 72 C40 70 40 70 42 70 C42.33 69.01 42.66 68.02 43 67 C43.66 67 44.32 67 45 67 C45.37125 66.13375 45.37125 66.13375 45.75 65.25 C47.18299988 62.67060021 48.78424676 60.93878408 51 59 C51.66 59 52.32 59 53 59 C53.33 58.01 53.66 57.02 54 56 C54.66 56 55.32 56 56 56 C56.38865234 55.12408203 56.38865234 55.12408203 56.78515625 54.23046875 C58.08738963 51.83955152 59.50827548 50.22512904 61.4375 48.3125 C62.33275391 47.40951172 62.33275391 47.40951172 63.24609375 46.48828125 C65 45 65 45 68 44 C67.35680261 47.42777147 66.03126739 49.78249443 64.125 52.6875 C63.50367188 53.64269531 62.88234375 54.59789062 62.2421875 55.58203125 C61.89124023 56.11650879 61.54029297 56.65098633 61.17871094 57.20166016 C59.34848093 59.9940119 57.53595831 62.79778152 55.72216797 65.60083008 C54.75653448 67.09251763 53.78946065 68.58327397 52.82080078 70.07299805 C50.48017487 73.67836416 48.17998167 77.29403116 46 81 C53.94143166 76.05981069 61.87550067 71.10892369 69.75 66.0625 C70.85859375 65.35222656 71.9671875 64.64195313 73.109375 63.91015625 C75.93979024 62.10090735 75.93979024 62.10090735 78.203125 60.24609375 C80 59 80 59 83 59 C83 58.34 83 57.68 83 57 C84.94140625 55.6328125 84.94140625 55.6328125 87.5625 54.125 C88.46871094 53.5990625 89.37492188 53.073125 90.30859375 52.53125 C91.19675781 52.0259375 92.08492187 51.520625 93 51 C93.73347656 50.5771875 94.46695313 50.154375 95.22265625 49.71875 C96.81108987 48.80548221 98.40490189 47.90157719 100 47 C100 50 100 50 97.96362305 52.21948242 C96.97713296 53.14779483 95.9891018 54.07447083 95 55 C93.83760097 56.16379648 92.68013534 57.3325332 91.52661133 58.50512695 C88.04273242 62.02448815 84.55285195 65.5378305 81.06079102 69.04907227 C79.55478597 70.56521656 78.05056892 72.08313886 76.5480957 73.6027832 C74.37655263 75.7984519 72.19873134 77.98771538 70.01953125 80.17578125 C69.34557816 80.86005692 68.67162506 81.54433258 67.97724915 82.24934387 C67.3528746 82.87386948 66.72850006 83.49839508 66.08520508 84.1418457 C65.53625076 84.69524124 64.98729645 85.24863678 64.42170715 85.81880188 C63 87 63 87 61 87 C61 87.66 61 88.32 61 89 C59.04072937 90.7143618 57.04119788 92.38405168 55 94 C63.92480252 91.48577044 72.58995337 88.3167738 81.28466797 85.10766602 C83.13302861 84.42682862 84.98444694 83.75431044 86.8359375 83.08203125 C87.92438965 82.68218018 89.0128418 82.2823291 90.13427734 81.87036133 C93 81 93 81 97 81 C97 81.66 97 82.32 97 83 C94.87963867 84.49291992 94.87963867 84.49291992 91.91796875 86.23046875 C90.83966797 86.86919922 89.76136719 87.50792969 88.65039062 88.16601562 C87.49630146 88.84019944 86.34200356 89.51402606 85.1875 90.1875 C82.97178333 91.49200806 80.7569331 92.79798892 78.54296875 94.10546875 C77.45677246 94.74661621 76.37057617 95.38776367 75.25146484 96.04833984 C70.43946667 98.93669496 65.71206415 101.95199269 61 105 C67.71655857 104.26903983 74.42142352 103.46625692 81.125 102.625 C82.67477539 102.43200317 82.67477539 102.43200317 84.25585938 102.23510742 C89.6403881 101.561225 95.02130735 100.86740603 100.3984375 100.13671875 C101.42308105 99.99862793 102.44772461 99.86053711 103.50341797 99.71826172 C105.44837415 99.45489874 107.39275618 99.18724672 109.33642578 98.91455078 C114.61446029 98.20207829 119.67384793 97.86933505 125 98 C125 98.66 125 99.32 125 100 C120.66365977 102.06492392 116.38699695 103.4903006 111.75 104.75 C105.97955305 106.34984878 100.41352649 108.26113451 94.8125 110.375 C88.09293622 112.90408164 81.34370546 115.26499927 74.5 117.4375 C73.28920776 117.82591064 73.28920776 117.82591064 72.05395508 118.22216797 C68.93952782 119.19707838 66.28341717 120 63 120 C63 120.66 63 121.32 63 122 C63.62076416 121.98332275 64.24152832 121.96664551 64.88110352 121.94946289 C72.97801396 121.83094279 80.89425119 122.56190583 88.9375 123.4375 C90.8875293 123.63956055 90.8875293 123.63956055 92.87695312 123.84570312 C103.27872175 124.94883948 103.27872175 124.94883948 107 126 C107 126.66 107 127.32 107 128 C100.13418315 129.53487323 93.41735991 130.19327724 86.40234375 130.18359375 C85.17488937 130.18207558 85.17488937 130.18207558 83.92263794 130.18052673 C74.935884 130.0944146 66.03775817 129.27562079 57.10449219 128.34594727 C54.31544316 128.05631525 51.52516022 127.78211411 48.734375 127.50976562 C46.95564164 127.33160082 45.17699195 127.15259828 43.3984375 126.97265625 C42.56637787 126.89032242 41.73431824 126.80798859 40.87704468 126.72315979 C35.11626543 126.11626543 35.11626543 126.11626543 34 125 C33.62481582 123.27942879 33.29975538 121.54780262 33 119.8125 C32.82726562 118.8225 32.65453125 117.8325 32.4765625 116.8125 C32.31929687 115.884375 32.16203125 114.95625 32 114 C31.79375 112.783125 31.5875 111.56625 31.375 110.3125 C31.25125 109.549375 31.1275 108.78625 31 108 C30.34 108 29.68 108 29 108 C27.6459068 106.01399663 26.31542376 104.01182457 25 102 C19.82033517 96.28147407 13.55950509 93.20149212 5.8515625 92.5078125 C-3.49486607 92.05699334 -11.35575728 93.02769094 -18.640625 99.4453125 C-19.79012055 100.60141435 -20.89991686 101.79678406 -22 103 C-22.66 103 -23.32 103 -24 103 C-24.37125 103.9590625 -24.37125 103.9590625 -24.75 104.9375 C-25.4535553 106.66121048 -26.18129003 108.37691128 -26.98828125 110.0546875 C-29.41694537 115.15929791 -30.49795137 119.37705536 -31 125 C-33.01411257 127.01411257 -36.9538955 126.50971385 -39.7265625 126.71875 C-40.89812393 126.81295227 -40.89812393 126.81295227 -42.09335327 126.90905762 C-44.60358269 127.1103288 -47.11423489 127.30553454 -49.625 127.5 C-52.11426698 127.69526499 -54.60341147 127.89186723 -57.09237671 128.09094238 C-58.64266252 128.21468744 -60.19313277 128.33615043 -61.74380493 128.45495605 C-66.19448854 128.80728491 -70.58140909 129.3441584 -75 130 C-84.76015823 130.60473603 -94.34833583 129.28078956 -104 128 C-104 127.01 -104 126.02 -104 125 C-83.705 123.02 -83.705 123.02 -63 121 C-66.26959292 118.82027139 -69.52412419 117.66621635 -73.2109375 116.42578125 C-73.92772171 116.18085434 -74.64450592 115.93592743 -75.38301086 115.68357849 C-77.71224472 114.8889482 -80.04355479 114.100616 -82.375 113.3125 C-83.96731004 112.77082008 -85.55951365 112.2288272 -87.15161133 111.68652344 C-98.75080883 107.74059496 -110.36460272 103.8379243 -122 100 C-122 99.34 -122 98.68 -122 98 C-115.52991159 97.83958458 -109.34687701 98.46021704 -102.9375 99.3125 C-101.89835449 99.44640137 -100.85920898 99.58030273 -99.78857422 99.71826172 C-96.52497785 100.14005362 -93.26240986 100.56913405 -90 101 C-86.8640889 101.41227965 -83.72812544 101.82414819 -80.59204102 102.23510742 C-78.67428856 102.48711521 -76.756788 102.74105078 -74.83959961 102.99731445 C-68.90265917 103.78338075 -62.96248942 104.43986304 -57 105 C-59.2908548 103.56119337 -61.58255896 102.12377632 -63.875 100.6875 C-64.58229248 100.24398193 -65.28958496 99.80046387 -66.01831055 99.34350586 C-69.98322059 96.86375924 -73.96162608 94.40966915 -77.96484375 91.9921875 C-78.7738916 91.50274658 -79.58293945 91.01330566 -80.41650391 90.5090332 C-81.99079309 89.55858859 -83.56723382 88.61169697 -85.14599609 87.66870117 C-85.8673877 87.23275635 -86.5887793 86.79681152 -87.33203125 86.34765625 C-88.28686401 85.77543335 -88.28686401 85.77543335 -89.26098633 85.19165039 C-91.06640964 83.95449313 -92.50460597 82.59250127 -94 81 C-90.70535015 79.90178338 -90.24878131 80.01623824 -87.17114258 81.17163086 C-86.4105806 81.45199692 -85.65001862 81.73236298 -84.8664093 82.02122498 C-84.05068954 82.33261917 -83.23496979 82.64401337 -82.39453125 82.96484375 C-81.55532639 83.27700333 -80.71612152 83.5891629 -79.85148621 83.91078186 C-77.16849997 84.91104678 -74.49054469 85.92408855 -71.8125 86.9375 C-69.99575915 87.61738263 -68.17870539 88.29642975 -66.36132812 88.97460938 C-61.90386162 90.64006181 -57.45086534 92.31698989 -53 94 C-55.86973701 90.36474639 -58.84336325 87.02184082 -62.125 83.75 C-62.99382812 82.87859375 -63.86265625 82.0071875 -64.7578125 81.109375 C-66.81253109 78.97409294 -66.81253109 78.97409294 -69 78 C-69 77.34 -69 76.68 -69 76 C-69.99 75.67 -70.98 75.34 -72 75 C-73.6875 73.5625 -73.6875 73.5625 -75 72 C-75 71.34 -75 70.68 -75 70 C-75.639375 69.731875 -76.27875 69.46375 -76.9375 69.1875 C-79 68 -79 68 -80 65 C-81.31433229 64.29661329 -82.65078789 63.63391553 -84 63 C-85.73925781 61.51953125 -85.73925781 61.51953125 -87.453125 59.8125 C-88.071875 59.19632813 -88.690625 58.58015625 -89.328125 57.9453125 C-89.96234375 57.30335937 -90.5965625 56.66140625 -91.25 56 C-91.8996875 55.35804687 -92.549375 54.71609375 -93.21875 54.0546875 C-93.83234375 53.43851563 -94.4459375 52.82234375 -95.078125 52.1875 C-95.63918945 51.62417969 -96.20025391 51.06085938 -96.77832031 50.48046875 C-98 49 -98 49 -98 47 C-94.42597488 48.30710813 -91.49002567 49.88412294 -88.375 52.0625 C-85.82843844 53.83987829 -83.96802184 55.01065939 -81 56 C-81 56.66 -81 57.32 -81 58 C-80.32710937 58.2371875 -79.65421875 58.474375 -78.9609375 58.71875 C-75.27274257 60.31469715 -72.01098959 62.3482755 -68.625 64.5 C-67.93253174 64.93562256 -67.24006348 65.37124512 -66.52661133 65.82006836 C-60.87524878 69.39497603 -55.30517382 73.08817829 -49.78564453 76.86328125 C-47.19789108 78.61836644 -44.98394609 80.0053513 -42 81 C-44.16763593 77.60367744 -46.33647454 74.20812613 -48.50634766 70.81323242 C-49.24169071 69.66239325 -49.97672593 68.51135732 -50.71142578 67.36010742 C-51.77812563 65.6887503 -52.84608997 64.01820043 -53.9140625 62.34765625 C-54.6040332 61.26758301 -55.29400391 60.18750977 -56.00488281 59.07470703 C-58.25959244 55.59993793 -60.59514378 52.18770451 -62.98193359 48.80249023 C-64 47 -64 47 -64 44 C-59.96918 45.612328 -57.24055863 48.46234596 -54.25 51.5 C-53.74339844 51.99886719 -53.23679687 52.49773437 -52.71484375 53.01171875 C-49 56.74658861 -49 56.74658861 -49 59 C-48.360625 59.268125 -47.72125 59.53625 -47.0625 59.8125 C-45 61 -45 61 -44 64 C-43.34 64 -42.68 64 -42 64 C-40.34375 65.71484375 -40.34375 65.71484375 -38.5 67.9375 C-36.11073001 70.92045179 -36.11073001 70.92045179 -33 73 C-33.29656494 72.19594727 -33.59312988 71.39189453 -33.89868164 70.56347656 C-44.29593406 42.35184914 -44.29593406 42.35184914 -48.80493164 29.29394531 C-49.17992798 28.20871582 -49.17992798 28.20871582 -49.5625 27.1015625 C-49.79710938 26.42125977 -50.03171875 25.74095703 -50.2734375 25.04003906 C-51.03820628 22.89272458 -51.86065807 20.77253261 -52.6875 18.6484375 C-54 15 -54 15 -54 12 C-53.34 12 -52.68 12 -52 12 C-50.77001953 13.61035156 -50.77001953 13.61035156 -49.3828125 15.890625 C-48.60502441 17.157854 -48.60502441 17.157854 -47.81152344 18.45068359 C-47.2549707 19.37445801 -46.69841797 20.29823242 -46.125 21.25 C-45.2592334 22.66853271 -45.2592334 22.66853271 -44.37597656 24.11572266 C-42.57537586 27.07202806 -40.78612688 30.03493096 -39 33 C-38.45891602 33.8962207 -37.91783203 34.79244141 -37.36035156 35.71582031 C-34.35873305 40.6911569 -31.37231437 45.6754066 -28.39453125 50.66503906 C-26.18561398 54.36358332 -23.9676062 58.05666147 -21.75 61.75 C-21.01557958 62.97393108 -20.2811994 64.19788631 -19.546875 65.421875 C-19.03640625 66.27265625 -18.5259375 67.1234375 -18 68 C-19.18535982 52.65242529 -19.18535982 52.65242529 -21.625 37.47265625 C-22.35217659 32.67783562 -22.15189166 27.83521773 -22 23 C-19.65921933 25.10264157 -18.50770354 26.74454692 -17.55786133 29.73706055 C-17.3178389 30.47760178 -17.07781647 31.21814301 -16.83052063 31.98112488 C-16.46001839 33.17189384 -16.46001839 33.17189384 -16.08203125 34.38671875 C-15.68886971 35.61223198 -15.68886971 35.61223198 -15.2877655 36.86250305 C-14.45401624 39.46816609 -13.63312767 42.07767827 -12.8125 44.6875 C-12.24889017 46.45664908 -11.6844468 48.22553285 -11.11914062 49.99414062 C-9.7364089 54.32640975 -8.36519591 58.66217459 -7 63 C-5.68772301 60.37544601 -5.61874863 58.10025176 -5.33569336 55.17333984 C-5.21564438 53.95222504 -5.0955954 52.73111023 -4.97190857 51.47299194 C-4.84446891 50.13564853 -4.71711602 48.79829685 -4.58984375 47.4609375 C-4.45709814 46.09612713 -4.32400137 44.73135087 -4.19056702 43.36660767 C-3.84018537 39.77320145 -3.49458447 36.17935081 -3.14996338 32.58538818 C-2.79751269 28.91862532 -2.44056162 25.25230096 -2.08398438 21.5859375 C-1.38490735 14.39104755 -0.69087821 7.19568235 0 0 Z " fill="#F4861D" transform="translate(147,56)"/>
<path d="M0 0 C6.87208076 5.15406057 9.84152721 10.78105775 12.2890625 18.88671875 C13.01545297 21.04593437 13.9371837 22.98791615 15 25 C15.66 25 16.32 25 17 25 C17.0928125 24.4121875 17.185625 23.824375 17.28125 23.21875 C18.87121969 18.31058268 24.04283629 15.05264521 28.42578125 12.6953125 C38.56749925 8.14730803 49.01276307 7.29275295 59.6875 10.6875 C68.6609733 14.56492674 76.02076553 22.74964328 80.625 31.3125 C83.62615101 39.36104136 85.07791052 46.42861909 83 55 C78.545 55.495 78.545 55.495 74 56 C74.50980961 60.03378366 74.50980961 60.03378366 77.0625 61.25 C77.701875 61.4975 78.34125 61.745 79 62 C78.67655484 67.33684515 75.71317141 70.46364628 72 74 C63.93590082 79.8504249 54.56789316 80.63496722 44.84765625 79.53125 C36.74086833 78.01887256 29.91897544 73.68109699 24 68 C24 67.34 24 66.68 24 66 C23.443125 65.814375 22.88625 65.62875 22.3125 65.4375 C18.44303795 63.03215873 15.64791059 59.42262222 14.4609375 54.984375 C14.2259094 53.33246319 14.10196504 51.66542906 14 50 C13.01 50 12.02 50 11 50 C10.731875 51.051875 10.46375 52.10375 10.1875 53.1875 C9.12747781 56.59072912 8.08611696 59.13158918 6 62 C5.34 62 4.68 62 4 62 C3.74476563 62.598125 3.48953125 63.19625 3.2265625 63.8125 C-0.60064328 70.63808993 -9.79473409 74.47244002 -16.8671875 77.04150391 C-22.24615759 78.54883896 -27.73596445 78.24624041 -33.27734375 78.1953125 C-34.4438295 78.1924826 -35.61031525 78.18965271 -36.81214905 78.18673706 C-40.52070576 78.17558388 -44.22901685 78.15048786 -47.9375 78.125 C-50.45898088 78.11496393 -52.98046555 78.10583918 -55.50195312 78.09765625 C-61.6680519 78.07566044 -67.83400839 78.04223118 -74 78 C-74 76.02 -74 74.04 -74 72 C-72.69442139 71.98541748 -71.38884277 71.97083496 -70.04370117 71.95581055 C-65.15492689 71.89741343 -60.26659345 71.82018595 -55.37817383 71.73754883 C-53.27082526 71.70449301 -51.16339227 71.67640224 -49.0559082 71.65356445 C-46.00956566 71.6196601 -42.9639835 71.56732943 -39.91796875 71.51171875 C-38.52664986 71.50213387 -38.52664986 71.50213387 -37.10722351 71.49235535 C-24.79154442 71.22152133 -14.50558583 67.58356343 -5.1875 59.41015625 C4.20398718 49.40724412 7.48681865 36.53352663 7.25390625 23.2109375 C6.63221306 15.34890978 3.57849713 8.91020135 0 2 C0 1.34 0 0.68 0 0 Z " fill="#F97740" transform="translate(375,134)"/>
<path d="M0 0 C1.06734375 -0.00128906 2.1346875 -0.00257813 3.234375 -0.00390625 C4.35328125 -0.00003906 5.4721875 0.00382813 6.625 0.0078125 C7.74390625 0.00394531 8.8628125 0.00007812 10.015625 -0.00390625 C11.61664062 -0.00197266 11.61664062 -0.00197266 13.25 0 C14.72339844 0.00169189 14.72339844 0.00169189 16.2265625 0.00341797 C18.625 0.1328125 18.625 0.1328125 20.625 1.1328125 C20.625 2.1228125 20.625 3.1128125 20.625 4.1328125 C21.285 4.1328125 21.945 4.1328125 22.625 4.1328125 C22.625 4.7928125 22.625 5.4528125 22.625 6.1328125 C23.23182617 6.37306152 23.83865234 6.61331055 24.46386719 6.86083984 C27.11118848 8.41896727 27.82378864 9.76200061 29.203125 12.484375 C29.64140625 13.33515625 30.0796875 14.1859375 30.53125 15.0625 C30.9746875 15.95195312 31.418125 16.84140625 31.875 17.7578125 C32.33390625 18.655 32.7928125 19.5521875 33.265625 20.4765625 C34.39599663 22.69020694 35.51521179 24.90879693 36.625 27.1328125 C38.04285021 24.46676936 39.45930492 21.79999978 40.875 19.1328125 C41.27074219 18.38902344 41.66648437 17.64523438 42.07421875 16.87890625 C44.37379985 12.5436304 46.60411828 8.18914386 48.72167969 3.76171875 C49.625 2.1328125 49.625 2.1328125 51.625 0.1328125 C54.05517578 -0.09423828 54.05517578 -0.09423828 57.0703125 -0.0625 C58.68486328 -0.05283203 58.68486328 -0.05283203 60.33203125 -0.04296875 C61.45996094 -0.02621094 62.58789062 -0.00945312 63.75 0.0078125 C65.45349609 0.02134766 65.45349609 0.02134766 67.19140625 0.03515625 C70.00281299 0.05878152 72.81380298 0.09172237 75.625 0.1328125 C77.27672635 16.238877 74.70976105 26.30296068 66.03515625 39.85009766 C63.97665954 43.18232485 62.30217782 46.66037183 60.625 50.1953125 C57.25370508 57.13512132 53.44148379 63.78160665 49.48046875 70.40063477 C46.45805766 75.49764909 43.91228242 80.66614281 41.625 86.1328125 C40.965 86.1328125 40.305 86.1328125 39.625 86.1328125 C39.480625 86.9371875 39.33625 87.7415625 39.1875 88.5703125 C38.625 91.1328125 38.625 91.1328125 37.625 92.1328125 C35.62535018 92.22039253 33.6226389 92.23977826 31.62109375 92.23046875 C29.79868164 92.22563477 29.79868164 92.22563477 27.93945312 92.22070312 C26.66005859 92.21232422 25.38066406 92.20394531 24.0625 92.1953125 C22.77923828 92.19080078 21.49597656 92.18628906 20.17382812 92.18164062 C16.99083978 92.16980795 13.80794238 92.15332318 10.625 92.1328125 C10.625 91.8028125 10.625 91.4728125 10.625 91.1328125 C8.645 90.4728125 6.665 89.8128125 4.625 89.1328125 C5.32441596 85.98544068 6.38578698 83.10692374 7.625 80.1328125 C8.285 80.1328125 8.945 80.1328125 9.625 80.1328125 C9.73255615 79.39724121 9.8401123 78.66166992 9.95092773 77.90380859 C10.6694211 74.95020492 11.66563971 73.26367188 13.41015625 70.796875 C19.3829348 62.51925547 19.3829348 62.51925547 21.46923828 52.91259766 C20.11845676 48.68850076 17.64394026 45.24256331 14.91894531 41.78613281 C12.96687734 39.29190558 11.3132066 36.62242673 9.625 33.9453125 C9.0475 33.10613281 8.47 32.26695312 7.875 31.40234375 C6.625 29.1328125 6.625 29.1328125 6.625 25.1328125 C5.965 25.1328125 5.305 25.1328125 4.625 25.1328125 C4.295 23.4828125 3.965 21.8328125 3.625 20.1328125 C2.965 20.1328125 2.305 20.1328125 1.625 20.1328125 C1.31046875 19.49214844 0.9959375 18.85148437 0.671875 18.19140625 C-1.34890565 14.10723814 -3.37166711 10.05893779 -5.6875 6.1328125 C-7.375 3.1328125 -7.375 3.1328125 -7.375 1.1328125 C-4.78776011 -0.16080744 -2.89386997 0.00332301 0 0 Z " fill="#FC4666" transform="translate(695.375,143.8671875)"/>
<path d="M0 0 C1.30940552 0.00858032 1.30940552 0.00858032 2.64526367 0.01733398 C12.03976226 0.27575448 19.51722855 2.63722326 26.4375 9.1875 C29.1875 12.14047619 29.1875 12.14047619 29.1875 14.5 C29.80206055 14.76296875 30.41662109 15.0259375 31.04980469 15.296875 C34.71013084 17.35695806 35.99664831 20.65084124 37.1875 24.5 C37.79926649 29.16581716 37.88454994 33.79833758 37.9375 38.5 C37.96642334 39.78479248 37.99534668 41.06958496 38.02514648 42.39331055 C38.10202043 46.09564393 38.15159969 49.79706467 38.1875 53.5 C38.1973291 54.45986816 38.2071582 55.41973633 38.21728516 56.40869141 C38.25325963 60.77498887 38.23161381 65.1327329 38.1875 69.5 C31.9175 69.5 25.6475 69.5 19.1875 69.5 C18.5275 68.18 17.8675 66.86 17.1875 65.5 C16.094375 66.139375 15.00125 66.77875 13.875 67.4375 C6.74292216 71.6090927 -1.50149057 71.47189942 -9.5234375 70.00390625 C-14.62654969 68.46252253 -17.97286584 66.16510533 -21.8125 62.5 C-22.67875 61.71625 -23.545 60.9325 -24.4375 60.125 C-29.34469017 54.7012635 -32.1502414 49.06322948 -32.02734375 41.62109375 C-31.41311508 35.55698163 -28.41129945 31.29400955 -23.8125 27.5 C-22.8225 27.5 -21.8325 27.5 -20.8125 27.5 C-20.8125 26.84 -20.8125 26.18 -20.8125 25.5 C-19.8225 25.5 -18.8325 25.5 -17.8125 25.5 C-18.91402406 24.06047403 -20.0188304 22.62345929 -21.125 21.1875 C-21.73988281 20.38699219 -22.35476563 19.58648437 -22.98828125 18.76171875 C-24.69293509 16.50902239 -24.69293509 16.50902239 -26.60546875 14.95703125 C-27.8125 13.5 -27.8125 13.5 -27.71875 11.50390625 C-26.61152972 9.05561313 -25.4638284 8.03819077 -23.3125 6.4375 C-22.6834375 5.95152344 -22.054375 5.46554688 -21.40625 4.96484375 C-14.55573146 1.0959515 -7.79265268 -0.05968197 0 0 Z " fill="#FA4666" transform="translate(655.8125,142.5)"/>
<path d="M0 0 C3.93725326 -0.11594584 7.87406923 -0.18716464 11.8125 -0.25 C12.93205078 -0.28351563 14.05160156 -0.31703125 15.20507812 -0.3515625 C16.27822266 -0.36445313 17.35136719 -0.37734375 18.45703125 -0.390625 C19.9416687 -0.4220459 19.9416687 -0.4220459 21.45629883 -0.45410156 C24 0 24 0 25.84643555 1.89941406 C27 4 27 4 27 6 C27.6172998 6.09369873 28.23459961 6.18739746 28.87060547 6.28393555 C31 7 31 7 32.15673828 8.51879883 C32.45821777 9.15841553 32.75969727 9.79803223 33.0703125 10.45703125 C33.40933594 11.15763672 33.74835938 11.85824219 34.09765625 12.58007812 C34.43667969 13.31677734 34.77570313 14.05347656 35.125 14.8125 C35.47175781 15.53759766 35.81851563 16.26269531 36.17578125 17.00976562 C36.82434619 18.36777612 37.46710545 19.72858605 38.10205078 21.09301758 C39.03692856 23.0784255 40.01177338 25.04067893 41 27 C41.27674561 26.46632812 41.55349121 25.93265625 41.83862305 25.3828125 C43.11818308 22.92009216 44.40280868 20.46004721 45.6875 18 C46.12255859 17.16082031 46.55761719 16.32164062 47.00585938 15.45703125 C47.88569924 13.77555951 48.7825559 12.10288428 49.69604492 10.43945312 C51.02207594 8.04026183 51.02207594 8.04026183 52.0324707 5.60742188 C53.15897652 3.27096537 54.04728203 1.71566962 56 0 C59.97992202 -0.97009884 63.74706674 -0.75828043 67.8125 -0.5 C69.42415039 -0.44585937 69.42415039 -0.44585937 71.06835938 -0.390625 C73.71588793 -0.29649065 76.35611006 -0.16518356 79 0 C79.99 1.98 79.99 1.98 81 4 C80.52433594 4.64388672 80.52433594 4.64388672 80.0390625 5.30078125 C76.09859385 10.9066966 72.87020457 16.81919468 69.6875 22.875 C69.02065186 24.14210815 69.02065186 24.14210815 68.34033203 25.43481445 C66.68703438 28.61102048 65.13437139 31.59688584 64 35 C63.34 35 62.68 35 62 35 C61.7628125 35.76699219 61.525625 36.53398437 61.28125 37.32421875 C53.58606483 59.40095424 53.58606483 59.40095424 46.83398438 63.22753906 C41.5785961 64.85462852 36.19200245 64.89065258 31 63 C27.4224552 60.15278239 25.74715846 57.17446076 24 53 C23.6184375 52.31292969 23.236875 51.62585938 22.84375 50.91796875 C22 49 22 49 22 45 C21.34 45 20.68 45 20 45 C19.52691406 44.030625 19.05382812 43.06125 18.56640625 42.0625 C14.9831497 34.77954024 11.28073955 27.60892964 7.25 20.5625 C-1.28792487 5.55370776 -1.28792487 5.55370776 -0.5859375 1.765625 C-0.39257812 1.18296875 -0.19921875 0.6003125 0 0 Z " fill="#FC7740" transform="translate(454,144)"/>
<path d="M0 0 C1.26577881 0.07017334 2.53155762 0.14034668 3.83569336 0.21264648 C13.34490059 0.81035243 22.75258446 2.0203804 32.1875 3.3125 C33.00559143 3.42360107 33.82368286 3.53470215 34.66656494 3.64916992 C45.77888453 5.16639918 56.76682934 6.87202603 67.68603516 9.46435547 C70.41274029 10.09554254 73.14818107 10.67624254 75.88671875 11.25390625 C76.91168457 11.47111328 77.93665039 11.68832031 78.99267578 11.91210938 C80.96600931 12.33019117 82.93962019 12.74696713 84.91357422 13.16210938 C87.61717188 13.74464455 90.30962446 14.35924706 93 15 C93.9472998 15.22413574 94.89459961 15.44827148 95.87060547 15.67919922 C97.23209717 16.03715576 97.23209717 16.03715576 98.62109375 16.40234375 C99.43892334 16.61238037 100.25675293 16.82241699 101.09936523 17.03881836 C103 18 103 18 103.77368164 20.09985352 C103.8483667 20.72690186 103.92305176 21.3539502 104 22 C101.46691719 23.67816736 100.27501938 24.03488368 97.21484375 23.64672852 C96.13332031 23.37272217 95.05179687 23.09871582 93.9375 22.81640625 C88.24710624 21.47995896 82.58699736 20.37081132 76.8125 19.46484375 C76.01424805 19.33912994 75.21599609 19.21341614 74.39355469 19.08389282 C71.92950218 18.69870033 69.46476613 18.31809603 67 17.9375 C65.35150944 17.6793751 63.70307166 17.42091286 62.0546875 17.16210938 C57.3716398 16.42910425 52.68638325 15.71133369 48 15 C46.72229736 14.80494873 45.44459473 14.60989746 44.12817383 14.40893555 C36.65979626 13.30089054 29.21543383 12.50295551 21.6875 11.9375 C19.67047924 11.78115182 17.65354996 11.62361836 15.63671875 11.46484375 C14.33287231 11.36610962 14.33287231 11.36610962 13.00268555 11.26538086 C11.35236257 11.11952338 9.70242409 10.96328943 8.05813313 10.76044083 C2.64807996 10.09447508 -2.65797368 9.85161866 -8.10546875 9.85473633 C-8.96705093 9.85137772 -9.82863312 9.8480191 -10.71632385 9.84455872 C-13.54006428 9.83512943 -16.36374484 9.83310928 -19.1875 9.83203125 C-21.17415388 9.82881175 -23.16080753 9.82544717 -25.14746094 9.82194519 C-29.30648344 9.81597294 -33.46548523 9.81410319 -37.62451172 9.81469727 C-42.90816237 9.81479846 -48.19167737 9.8011815 -53.47529602 9.78392506 C-57.57986031 9.77270594 -61.68439291 9.77078112 -65.78897095 9.77130699 C-67.73426783 9.77014039 -69.6795659 9.76579448 -71.62484741 9.75797462 C-82.30615891 9.71907416 -92.69419305 10.07141907 -103.28369141 11.52787781 C-107.08251412 12.01048265 -110.80139841 12.2564854 -114.625 12.4375 C-129.82736281 13.30535142 -144.81410957 15.70336123 -159.75097656 18.58032227 C-169.76094195 20.44156719 -179.85341577 21.27037132 -190 22 C-190 20.68 -190 19.36 -190 18 C-184.61021952 16.3121773 -179.24517745 14.7613051 -173.71875 13.59375 C-170.84298758 12.96570993 -167.98348746 12.27845542 -165.12231445 11.58740234 C-150.00633006 7.95578245 -134.82576097 5.41370525 -119.42480469 3.33203125 C-117.34640265 3.04743331 -115.27055169 2.74431154 -113.1953125 2.4375 C-100.78798591 0.69993129 -88.27671445 0.03962191 -75.77627563 -0.66645813 C-71.85489641 -0.88807224 -67.93735146 -1.14114074 -64.01953125 -1.41796875 C-42.70000101 -2.76196197 -21.2971816 -1.20983145 0 0 Z " fill="#FE627D" transform="translate(190,197)"/>
<path d="M0 0 C4.00571415 0.00689181 8.01096087 -0.02034258 12.01660156 -0.0456543 C40.57700406 -0.11441033 68.16157052 3.42761127 96.04003906 9.31567383 C97.81314453 9.68946167 97.81314453 9.68946167 99.62207031 10.07080078 C106.36686163 11.52736635 112.97001505 13.20307774 119.54003906 15.31567383 C119.54003906 16.63567383 119.54003906 17.95567383 119.54003906 19.31567383 C114.38452118 20.99121714 109.6931335 19.6088503 104.54003906 18.56567383 C93.57921167 16.45887475 82.60089102 14.79556754 71.54003906 13.31567383 C70.4458667 13.16485352 70.4458667 13.16485352 69.32958984 13.01098633 C68.2910083 12.86790039 68.2910083 12.86790039 67.23144531 12.72192383 C66.64049072 12.64006836 66.04953613 12.55821289 65.44067383 12.47387695 C51.68001555 10.71299845 37.95945823 10.15944756 24.09472656 10.14770508 C22.66814138 10.14447302 21.2415565 10.14110769 19.81497192 10.13761902 C16.84864537 10.1316961 13.88234765 10.12977192 10.91601562 10.13037109 C7.926045 10.13045217 4.93622819 10.12352718 1.94628906 10.10986328 C-14.52671514 10.03569846 -30.82187084 10.17576885 -47.21333313 12.06604004 C-50.32276751 12.41154448 -53.43753345 12.68140968 -56.55403137 12.95437622 C-71.12913475 14.24124883 -85.80186031 16.8637632 -100.11474609 19.87402344 C-103.28648557 20.47132478 -106.24246917 20.497796 -109.45996094 20.31567383 C-110.11996094 19.65567383 -110.77996094 18.99567383 -111.45996094 18.31567383 C-111.45996094 17.32567383 -111.45996094 16.33567383 -111.45996094 15.31567383 C-93.42981596 10.26551403 -75.18327549 6.31652048 -56.64746094 3.62817383 C-55.91027832 3.52102051 -55.1730957 3.41386719 -54.41357422 3.3034668 C-51.76565074 2.94200064 -49.1141507 2.62804221 -46.45996094 2.31567383 C-45.83083801 2.2344931 -45.20171509 2.15331238 -44.55352783 2.06967163 C-29.71641833 0.17772437 -14.94312338 -0.02787608 0 0 Z " fill="#FEBD1E" transform="translate(139.4599609375,214.684326171875)"/>
<path d="M0 0 C7.50296804 5.62722603 10.43748532 12.16993348 13 21 C13.17724609 21.60875977 13.35449219 22.21751953 13.53710938 22.84472656 C16.12946826 34.91505581 13.25252456 49.15596506 7.4921875 59.78125 C6.99976563 60.5134375 6.50734375 61.245625 6 62 C5.34 62 4.68 62 4 62 C3.74476563 62.598125 3.48953125 63.19625 3.2265625 63.8125 C-0.60064328 70.63808993 -9.79473409 74.47244002 -16.8671875 77.04150391 C-22.24615759 78.54883896 -27.73596445 78.24624041 -33.27734375 78.1953125 C-34.4438295 78.1924826 -35.61031525 78.18965271 -36.81214905 78.18673706 C-40.52070576 78.17558388 -44.22901685 78.15048786 -47.9375 78.125 C-50.45898088 78.11496393 -52.98046555 78.10583918 -55.50195312 78.09765625 C-61.6680519 78.07566044 -67.83400839 78.04223118 -74 78 C-74 76.02 -74 74.04 -74 72 C-72.69442139 71.98541748 -71.38884277 71.97083496 -70.04370117 71.95581055 C-65.15492689 71.89741343 -60.26659345 71.82018595 -55.37817383 71.73754883 C-53.27082526 71.70449301 -51.16339227 71.67640224 -49.0559082 71.65356445 C-46.00956566 71.6196601 -42.9639835 71.56732943 -39.91796875 71.51171875 C-38.52664986 71.50213387 -38.52664986 71.50213387 -37.10722351 71.49235535 C-24.79154442 71.22152133 -14.50558583 67.58356343 -5.1875 59.41015625 C4.20398718 49.40724412 7.48681865 36.53352663 7.25390625 23.2109375 C6.63221306 15.34890978 3.57849713 8.91020135 0 2 C0 1.34 0 0.68 0 0 Z " fill="#044045" transform="translate(375,134)"/>
<path d="M0 0 C0.33 0 0.66 0 1 0 C2.91260734 13.83259451 -1.50928389 22.03320587 -8.58984375 33.62060547 C-10.59747526 37.00813605 -12.30384479 40.51179202 -14 44.0625 C-17.37344998 51.00143528 -21.18337567 57.6485593 -25.14453125 64.26782227 C-28.16694234 69.36483659 -30.71271758 74.53333031 -33 80 C-33.66 80 -34.32 80 -35 80 C-35.144375 80.804375 -35.28875 81.60875 -35.4375 82.4375 C-36 85 -36 85 -37 86 C-38.99964982 86.08758003 -41.0023611 86.10696576 -43.00390625 86.09765625 C-44.82631836 86.09282227 -44.82631836 86.09282227 -46.68554688 86.08789062 C-47.96494141 86.07951172 -49.24433594 86.07113281 -50.5625 86.0625 C-51.84576172 86.05798828 -53.12902344 86.05347656 -54.45117188 86.04882812 C-57.63416022 86.03699545 -60.81705762 86.02051068 -64 86 C-63.34 85.01 -62.68 84.02 -62 83 C-59.04935852 82.7791436 -56.31631769 82.71939011 -53.375 82.8125 C-52.17230469 82.83280273 -52.17230469 82.83280273 -50.9453125 82.85351562 C-48.96325622 82.88890949 -46.98154449 82.94271766 -45 83 C-44.77957031 82.21367187 -44.55914063 81.42734375 -44.33203125 80.6171875 C-42.57339671 75.84154062 -40.16235459 71.5629154 -37.6875 67.125 C-36.60364463 65.16174644 -35.52033095 63.19819376 -34.4375 61.234375 C-33.59251953 59.70586914 -33.59251953 59.70586914 -32.73046875 58.14648438 C-29.84918501 52.90749103 -27.02287689 47.63892986 -24.1875 42.375 C-20.31208219 35.19201002 -16.39164678 28.06191015 -12.171875 21.07421875 C-10.86631027 18.91781018 -10.86631027 18.91781018 -10 16 C-9.34 16 -8.68 16 -8 16 C-7.88527344 15.27167969 -7.77054688 14.54335937 -7.65234375 13.79296875 C-6.98278878 10.92631123 -6.01930814 8.8586721 -4.5625 6.3125 C-4.13066406 5.54550781 -3.69882812 4.77851563 -3.25390625 3.98828125 C-2 2 -2 2 0 0 Z " fill="#094046" transform="translate(770,150)"/>
<path d="M0 0 C2.4375 0.1875 2.4375 0.1875 3.4375 1.1875 C3.15291645 7.78400072 1.23366711 12.0878669 -2.125 17.6875 C-3.04712098 19.2822095 -3.96634627 20.87859656 -4.8828125 22.4765625 C-5.33946289 23.2696582 -5.79611328 24.06275391 -6.26660156 24.87988281 C-8.13879741 28.21371762 -9.82811388 31.62499351 -11.5 35.0625 C-16.17815217 44.62183003 -21.37768254 53.89612358 -26.5625 63.1875 C-29.48071463 63.32260253 -32.39267652 63.4216305 -35.3125 63.5 C-36.1375 63.54189453 -36.9625 63.58378906 -37.8125 63.62695312 C-43.95599561 63.75081392 -43.95599561 63.75081392 -47.140625 60.79296875 C-48.5625 58.1875 -48.5625 58.1875 -48.5625 56.1875 C-43.2825 56.1875 -38.0025 56.1875 -32.5625 56.1875 C-31.9025 54.5375 -31.2425 52.8875 -30.5625 51.1875 C-29.71357417 49.41172681 -28.84528073 47.64512215 -27.9609375 45.88671875 C-27.47109375 44.91025391 -26.98125 43.93378906 -26.4765625 42.92773438 C-25.96867187 41.92033203 -25.46078125 40.91292969 -24.9375 39.875 C-24.421875 38.84826172 -23.90625 37.82152344 -23.375 36.76367188 C-22.10597219 34.23736651 -20.83508234 31.71201618 -19.5625 29.1875 C-18.9025 29.1875 -18.2425 29.1875 -17.5625 29.1875 C-17.45220459 28.47037842 -17.34190918 27.75325684 -17.22827148 27.0144043 C-16.5107295 23.96767944 -15.4147802 21.69696222 -13.91015625 18.95703125 C-13.38099609 17.98958984 -12.85183594 17.02214844 -12.30664062 16.02539062 C-11.75169922 15.02701172 -11.19675781 14.02863281 -10.625 13 C-10.07392578 11.99001953 -9.52285156 10.98003906 -8.95507812 9.93945312 C-3.62959485 0.26558011 -3.62959485 0.26558011 0 0 Z " fill="#074245" transform="translate(535.5625,149.8125)"/>
<path d="M0 0 C3.84974754 1.64729627 5.42599311 3.56190529 7.20117188 7.41796875 C8.86699587 12.80236806 8.6870203 18.40776226 8.75 24 C8.77892334 25.28479248 8.80784668 26.56958496 8.83764648 27.89331055 C8.91452043 31.59564393 8.96409969 35.29706467 9 39 C9.0098291 39.95986816 9.0196582 40.91973633 9.02978516 41.90869141 C9.06575963 46.27498887 9.04411381 50.6327329 9 55 C2.73 55 -3.54 55 -10 55 C-10.66 53.68 -11.32 52.36 -12 51 C-13.093125 51.639375 -14.18625 52.27875 -15.3125 52.9375 C-22.44457784 57.1090927 -30.68899057 56.97189942 -38.7109375 55.50390625 C-43.75124015 53.98149402 -47.28147552 51.71852448 -51 48 C-51 47.34 -51 46.68 -51 46 C-50.21625 46.32226562 -49.4325 46.64453125 -48.625 46.9765625 C-44.00904944 48.27977268 -39.77194706 48.36798243 -35 48.375 C-33.68515625 48.41173828 -33.68515625 48.41173828 -32.34375 48.44921875 C-26.58513398 48.47523659 -23.39907275 47.79279029 -19 44 C-18.505 43.01 -18.505 43.01 -18 42 C-17.34 42 -16.68 42 -16 42 C-15.34 43.98 -14.68 45.96 -14 48 C-8.39 48.33 -2.78 48.66 3 49 C2.505 46.03 2.505 46.03 2 43 C1.86583123 40.25593753 1.7694862 37.53035 1.71875 34.78515625 C1.70034058 34.01119003 1.68193115 33.23722382 1.66296387 32.43980408 C1.60459517 29.98077495 1.55162998 27.52167926 1.5 25.0625 C1.43186313 21.82408821 1.35817848 18.5858698 1.28125 15.34765625 C1.26767456 14.61515152 1.25409912 13.88264679 1.2401123 13.12794495 C1.13384712 8.67296924 0.71271328 4.39999461 0 0 Z " fill="#073F45" transform="translate(685,157)"/>
<path d="M0 0 C22 0 22 0 30 4 C30.66 5.32 31.32 6.64 32 8 C31.27981689 7.84152588 30.55963379 7.68305176 29.81762695 7.51977539 C27.14717588 7.02714994 24.62795454 6.79997351 21.91796875 6.68359375 C20.65762817 6.62643188 20.65762817 6.62643188 19.37182617 6.56811523 C18.32099854 6.52501221 17.2701709 6.48190918 16.1875 6.4375 C11.1446875 6.2209375 11.1446875 6.2209375 6 6 C6 19.53 6 33.06 6 47 C4.02 47 2.04 47 0 47 C0 31.49 0 15.98 0 0 Z " fill="#034145" transform="translate(321,138)"/>
<path d="M0 0 C3.63 0 7.26 0 11 0 C14 4 14 4 14 7 C11.69 7 9.38 7 7 7 C7.00785522 8.26444946 7.00785522 8.26444946 7.01586914 9.55444336 C7.03287826 12.67227936 7.04543406 15.79009177 7.05493164 18.90795898 C7.05997057 20.25920386 7.06680177 21.61044326 7.07543945 22.96166992 C7.08752419 24.90020434 7.09269828 26.838778 7.09765625 28.77734375 C7.10551147 30.52905884 7.10551147 30.52905884 7.11352539 32.31616211 C7 35 7 35 6 36 C4.14630389 36.08737645 2.28932459 36.10698153 0.43359375 36.09765625 C-0.69111328 36.09443359 -1.81582031 36.09121094 -2.97460938 36.08789062 C-4.15861328 36.07951172 -5.34261719 36.07113281 -6.5625 36.0625 C-7.75037109 36.05798828 -8.93824219 36.05347656 -10.16210938 36.04882812 C-13.10812226 36.03699675 -16.05403681 36.02051287 -19 36 C-19.38218767 34.34385343 -19.71395102 32.67542976 -20 31 C-19 30 -19 30 -17.14233398 29.88647461 C-15.95619507 29.89432983 -15.95619507 29.89432983 -14.74609375 29.90234375 C-13.9770874 29.90484131 -13.20808105 29.90733887 -12.41577148 29.90991211 C-11.43294189 29.91901611 -10.4501123 29.92812012 -9.4375 29.9375 C-4.7659375 29.9684375 -4.7659375 29.9684375 0 30 C0 20.1 0 10.2 0 0 Z " fill="#073F44" transform="translate(563,176)"/>
<path d="M0 0 C5.68193002 3.78795335 7.90101751 8.70305252 10 15 C10.86507801 26.03329007 9.7481693 33.63440484 2.75 42.25 C-0.28021572 45.54257206 -3.49197523 47.83533768 -7.3984375 49.9921875 C-9.17438221 50.91640309 -9.17438221 50.91640309 -10 53 C-11.17260611 51.71372289 -12.3379283 50.42080217 -13.5 49.125 C-14.1496875 48.40570313 -14.799375 47.68640625 -15.46875 46.9453125 C-17 45 -17 45 -17 43 C-16.35933594 42.731875 -15.71867188 42.46375 -15.05859375 42.1875 C-7.30090247 38.67283808 -1.65704539 34.20053017 1.9375 26.3125 C4.74182967 17.46405608 3.42127448 8.4106331 0 0 Z " fill="#073E44" transform="translate(617,131)"/>
<path d="M0 0 C3.125 0.375 3.125 0.375 6 1 C6.6875 3.24609375 6.6875 3.24609375 7 6 C3.39236457 12.37269812 -2.53767404 16.70585475 -9.46484375 18.71484375 C-19.73686741 20.96967821 -29.84209764 20.43380159 -39 15 C-41.7611981 13.10832492 -44.40894595 11.11802784 -47 9 C-44 8 -44 8 -42.08203125 8.77734375 C-41.33308594 9.16019531 -40.58414062 9.54304687 -39.8125 9.9375 C-31.28078361 13.5225697 -20.85904287 13.51258196 -12.25 10.125 C-10.8176699 9.44890013 -9.39889102 8.74282197 -8 8 C-7.27554688 7.66742188 -6.55109375 7.33484375 -5.8046875 6.9921875 C-3.48114626 5.71474275 -3.04453606 4.387511 -2 2 C-1.34 1.34 -0.68 0.68 0 0 Z " fill="#043F44" transform="translate(447,194)"/>
<path d="M0 0 C7.32226837 5.32528609 10.58929939 12.10722909 12 21 C12.21494013 25.22715585 11.87709195 28.88117622 11 33 C-4.88735711 33.52058088 -4.88735711 33.52058088 -13 30 C-15.79837369 30.19079821 -17.41181365 30.6552011 -19.8125 32.0625 C-23.15737606 33.49601831 -26.4496904 33.4649215 -30 33 C-32.9375 31.6875 -32.9375 31.6875 -35 30 C-35.33 29.01 -35.66 28.02 -36 27 C-22.8 26.67 -9.6 26.34 4 26 C4.52297636 11.76504522 4.52297636 11.76504522 3 5 C2.34 5 1.68 5 1 5 C0.505 2.525 0.505 2.525 0 0 Z " fill="#064044" transform="translate(447,156)"/>
<path d="M0 0 C4.22955053 -0.08093399 8.45755211 -0.1404757 12.6875 -0.1875 C13.88568359 -0.21263672 15.08386719 -0.23777344 16.31835938 -0.26367188 C17.47529297 -0.27333984 18.63222656 -0.28300781 19.82421875 -0.29296875 C20.88729248 -0.3086792 21.95036621 -0.32438965 23.0456543 -0.34057617 C26.4763762 0.05491652 28.2774517 0.89433703 31 3 C31.66 4.32 32.32 5.64 33 7 C20.13 6.505 20.13 6.505 7 6 C7 9.96 7 13.92 7 18 C6.67 18.33 6.34 18.66 6 19 C4.02 19 2.04 19 0 19 C0 12.73 0 6.46 0 0 Z " fill="#074045" transform="translate(563,138)"/>
<path d="M0 0 C4.87072783 4.56630734 8.89156398 9.74976539 13 15 C12.67 15.66 12.34 16.32 12 17 C7.94343719 17.1238616 3.88761022 17.21445733 -0.17041016 17.2746582 C-1.54983702 17.2997593 -2.92913142 17.33384873 -4.30810547 17.37719727 C-6.29335872 17.43802875 -8.27959359 17.46357937 -10.265625 17.48828125 C-12.05661621 17.52755737 -12.05661621 17.52755737 -13.88378906 17.56762695 C-17 17 -17 17 -19.42089844 14.53198242 C-21 12 -21 12 -21 11 C-12.09 11 -3.18 11 6 11 C4.02 7.535 4.02 7.535 2 4 C1.3197633 2.67353844 0.64507739 1.34391123 0 0 Z " fill="#033F44" transform="translate(617,195)"/>
<path d="M0 0 C5.66176471 2.98529412 5.66176471 2.98529412 7 7 C0.4 7 -6.2 7 -13 7 C-9.79397931 0.58795862 -7.40678211 -1.28570557 0 0 Z " fill="#214744" transform="translate(424,161)"/>
<path d="M0 0 C3.66169192 0.55580106 3.66169192 0.55580106 5.15673828 2.51879883 C5.45821777 3.15841553 5.75969727 3.79803223 6.0703125 4.45703125 C6.40933594 5.15763672 6.74835938 5.85824219 7.09765625 6.58007812 C7.60619141 7.68512695 7.60619141 7.68512695 8.125 8.8125 C8.47175781 9.53759766 8.81851562 10.26269531 9.17578125 11.00976562 C9.82434619 12.36777612 10.46710545 13.72858605 11.10205078 15.09301758 C11.726344 16.41883441 12.3980891 17.72291081 13.10498047 19.0065918 C14.44248941 21.98552265 14.12368079 24.78429943 14 28 C13.34 28 12.68 28 12 28 C11.77860352 27.49138428 11.55720703 26.98276855 11.32910156 26.45874023 C10.30679504 24.11653067 9.27844143 21.7770219 8.25 19.4375 C7.90195312 18.63763672 7.55390625 17.83777344 7.1953125 17.01367188 C5.53806689 13.25417953 3.84098543 9.62817929 1.734375 6.09765625 C0 3 0 3 0 0 Z " fill="#083E45" transform="translate(481,150)"/>
<path d="M0 0 C0.639375 0.53625 1.27875 1.0725 1.9375 1.625 C1.9375 2.285 1.9375 2.945 1.9375 3.625 C-9.4475 4.615 -9.4475 4.615 -21.0625 5.625 C-21.0625 4.635 -21.0625 3.645 -21.0625 2.625 C-14.0303643 -1.09887328 -7.60087462 -3.41263758 0 0 Z " fill="#164047" transform="translate(661.0625,162.375)"/>
<path d="M0 0 C1.18851563 0.00902344 2.37703125 0.01804688 3.6015625 0.02734375 C4.51679687 0.03894531 5.43203125 0.05054688 6.375 0.0625 C4.65625 4.8984375 4.65625 4.8984375 2.125 6.375 C-0.95160964 7.14415241 -3.46527635 7.33725858 -6.625 7.0625 C-7.615 6.4025 -8.605 5.7425 -9.625 5.0625 C-9.25 3.125 -9.25 3.125 -8.625 1.0625 C-5.74084117 -0.37957941 -3.20778472 -0.03144887 0 0 Z " fill="#084046" transform="translate(657.625,181.9375)"/>
<path d="M0 0 C3.51792046 1.41380048 4.82026348 2.84687547 6.578125 6.17578125 C7.01640625 7.00400391 7.4546875 7.83222656 7.90625 8.68554688 C8.3496875 9.55244141 8.793125 10.41933594 9.25 11.3125 C9.70890625 12.16779297 10.1678125 13.02308594 10.640625 13.90429688 C12.87430297 18.19548476 14.28464783 21.07352836 14 26 C10.3407669 24.78025563 9.73911703 23.24964568 7.96875 19.95703125 C6.51741902 17.02510859 5.26926552 14.01450562 4 11 C2.94318675 8.92096012 1.86811184 6.85414201 0.76953125 4.796875 C0 3 0 3 0 0 Z " fill="#0A3D45" transform="translate(718,150)"/>
<path d="M0 0 C-1.98 0.99 -1.98 0.99 -4 2 C-3.34 2.33 -2.68 2.66 -2 3 C-2 3.66 -2 4.32 -2 5 C-7.94 5.495 -7.94 5.495 -14 6 C-14 4.68 -14 3.36 -14 2 C-12.42085985 1.46658816 -10.83645613 0.94874237 -9.25 0.4375 C-8.36828125 0.14746094 -7.4865625 -0.14257812 -6.578125 -0.44140625 C-3.92165684 -1.01697435 -2.52968894 -0.89248371 0 0 Z " fill="#FE8FA1" transform="translate(14,213)"/>
<path d="M0 0 C0.79921875 0.00902344 1.5984375 0.01804688 2.421875 0.02734375 C3.02515625 0.03894531 3.6284375 0.05054688 4.25 0.0625 C0.04127702 2.23942568 -3.18483879 3.18672287 -7.9375 3.125 C-9.28908203 3.11146484 -9.28908203 3.11146484 -10.66796875 3.09765625 C-11.35503906 3.08605469 -12.04210938 3.07445312 -12.75 3.0625 C-8.41514632 0.74025696 -4.91048478 -0.07221301 0 0 Z " fill="#FF8EA0" transform="translate(56.75,202.9375)"/>
<path d="M0 0 C0.99 1.32 1.98 2.64 3 4 C2.01 4.99 1.02 5.98 0 7 C-0.66 5.35 -1.32 3.7 -2 2 C-1.34 2 -0.68 2 0 2 C0 1.34 0 0.68 0 0 Z " fill="#183F46" transform="translate(727,164)"/>
<path d="M0 0 C0.99 0 1.98 0 3 0 C3 0.66 3 1.32 3 2 C2.01 2 1.02 2 0 2 C0 1.34 0 0.68 0 0 Z " fill="#82D71F" transform="translate(279,208)"/>
</svg>
